<svg width="22" height="22" viewBox="0 0 22 22" fill="none" xmlns="http://www.w3.org/2000/svg">
<path fill-rule="evenodd" clip-rule="evenodd" d="M18.3333 3.66667H3.66665C2.65831 3.66667 1.84248 4.49167 1.84248 5.50001L1.83331 16.5C1.83331 17.5083 2.65831 18.3333 3.66665 18.3333H18.3333C19.3416 18.3333 20.1666 17.5083 20.1666 16.5V5.50001C20.1666 4.49167 19.3416 3.66667 18.3333 3.66667ZM18.3333 15.5833C18.3333 16.0875 17.9208 16.5 17.4166 16.5H4.58331C4.07915 16.5 3.66665 16.0875 3.66665 15.5833V7.33334L10.0283 11.3117C10.6241 11.6875 11.3758 11.6875 11.9716 11.3117L18.3333 7.33334V15.5833ZM3.66665 5.50001L11 10.0833L18.3333 5.50001H3.66665Z" fill="#4A4A4A"/>
</svg>