<svg width="18" height="18" viewBox="0 0 18 18" fill="none" xmlns="http://www.w3.org/2000/svg">
<path fill-rule="evenodd" clip-rule="evenodd" d="M4.32684 4.59078C6.67434 4.12578 8.77434 5.48328 9.48684 7.50078H15.7493C16.5743 7.50078 17.2493 8.17578 17.2493 9.00078C17.2493 9.82578 16.5743 10.5008 15.7493 10.5008V12.0008C15.7493 12.8258 15.0743 13.5008 14.2493 13.5008C13.4243 13.5008 12.7493 12.8258 12.7493 12.0008V10.5008H9.48684C8.87184 12.2483 7.20684 13.5008 5.24934 13.5008C2.44434 13.5008 0.239344 10.9283 0.854344 8.02578C1.21434 6.30828 2.60934 4.93578 4.32684 4.59078ZM3.74934 9.00078C3.74934 9.82578 4.42434 10.5008 5.24934 10.5008C6.07434 10.5008 6.74934 9.82578 6.74934 9.00078C6.74934 8.17578 6.07434 7.50078 5.24934 7.50078C4.42434 7.50078 3.74934 8.17578 3.74934 9.00078Z" fill="#4A4A4A"/>
</svg>