<svg width="18" height="18" viewBox="0 0 18 18" fill="none" xmlns="http://www.w3.org/2000/svg">
<path d="M13.2314 4.76359C12.0089 3.54109 10.2764 2.83609 8.37135 3.03109C5.61885 3.30859 3.35385 5.54359 3.04635 8.29609C2.63385 11.9336 5.44635 15.0011 8.99385 15.0011C11.3864 15.0011 13.4413 13.5986 14.4014 11.5811C14.6414 11.0786 14.2814 10.5011 13.7264 10.5011C13.4489 10.5011 13.1864 10.6511 13.0664 10.8986C12.2189 12.7211 10.1864 13.8761 7.96635 13.3811C6.30135 13.0136 4.95885 11.6561 4.60635 9.99109C3.97635 7.08109 6.18885 4.50109 8.99385 4.50109C10.2389 4.50109 11.3489 5.01859 12.1589 5.83609L11.0264 6.96859C10.5539 7.44109 10.8839 8.25109 11.5514 8.25109H14.2439C14.6564 8.25109 14.9939 7.91359 14.9939 7.50109V4.80859C14.9939 4.14109 14.1839 3.80359 13.7114 4.27609L13.2314 4.76359Z" fill="#4A4A4A"/>
</svg>